<?xml version="1.0" encoding="UTF-8"?>
<!-- Generator: Adobe Illustrator 16.0.0, SVG Export Plug-In . SVG Version: 6.00 Build 0)  -->
<!DOCTYPE svg PUBLIC "-//W3C//DTD SVG 1.1//EN" "http://www.w3.org/Graphics/SVG/1.1/DTD/svg11.dtd">
<svg version="1.1" id="Layer_1" xmlns="http://www.w3.org/2000/svg" xmlns:xlink="http://www.w3.org/1999/xlink" x="0px" y="0px" width="800px" height="227.128px" viewBox="0 0 800 227.128" enable-background="new 0 0 800 227.128" xml:space="preserve">
<g transform="translate(-212.669 -173.11)">
	<g transform="translate(540.409 185.419)">
		<path fill="#3B3C3E" d="M24.471,79.183c11.725,0,20.48-2.996,26.263-8.989c5.783-5.993,8.673-14.387,8.668-25.183    c0-10.8-2.889-19.195-8.668-25.186c-5.779-5.991-14.533-8.985-26.263-8.983c-3.486,0-6.183,0.042-8.092,0.125    c-1.911,0.088-3.253,0.171-4.016,0.256v67.574c0.762,0.088,2.1,0.178,4.016,0.259S20.986,79.184,24.471,79.183 M72.536,45.012    c0.154,6.822-1.058,13.605-3.565,19.953c-2.203,5.405-5.655,10.212-10.073,14.027c-4.551,3.816-9.85,6.638-15.555,8.288    c-6.46,1.885-13.162,2.807-19.891,2.738c-3.57,0-7.498-0.148-11.785-0.443c-3.929-0.243-7.831-0.82-11.663-1.724V2.17    c3.832-0.903,7.734-1.48,11.663-1.725C15.958,0.151,19.886,0.003,23.452,0c6.729-0.067,13.431,0.857,19.891,2.742    c5.703,1.654,11,4.475,15.555,8.285c4.417,3.816,7.869,8.623,10.073,14.028c2.508,6.348,3.721,13.133,3.57,19.956"/>
	</g>
	<rect x="630.547" y="208.368" fill="#3B3C3E" width="11.858" height="66.307"/>
	<g transform="translate(659.108 206.972)">
		<path fill="#3B3C3E" d="M45.132,11.853c-1.571-0.414-3.166-0.732-4.776-0.953c-2.686-0.339-5.393-0.489-8.1-0.448    c-6.379,0-11.287,2.083-14.727,6.249c-3.438,4.166-5.161,9.691-5.166,16.575c-0.074,3.332,0.422,6.653,1.468,9.818    c0.846,2.498,2.191,4.798,3.955,6.759c1.586,1.737,3.549,3.09,5.736,3.954c2.133,0.844,4.406,1.276,6.7,1.274    c2.943,0.032,5.872-0.421,8.668-1.343c2.242-0.688,4.354-1.744,6.249-3.124L45.132,11.853z M45.263,61.072    c-1.883,1.075-3.872,1.95-5.938,2.612c-3.302,1.124-6.774,1.663-10.263,1.594c-3.843,0.027-7.661-0.62-11.281-1.91    c-3.492-1.251-6.653-3.279-9.248-5.93c-2.755-2.867-4.882-6.277-6.246-10.012c-1.625-4.579-2.4-9.417-2.29-14.275    c-0.056-4.534,0.677-9.044,2.162-13.328c1.354-3.887,3.504-7.449,6.315-10.455c2.847-2.993,6.302-5.342,10.133-6.888    c4.297-1.71,8.89-2.553,13.514-2.481c4.854-0.056,9.7,0.348,14.478,1.206c4.119,0.812,7.582,1.557,10.391,2.235v59.159    c0,10.2-2.637,17.594-7.91,22.182c-5.272,4.588-13.263,6.883-23.968,6.885c-3.954,0.017-7.901-0.323-11.795-1.019    c-3.264-0.57-6.481-1.379-9.629-2.418l2.167-10.331c2.84,1.066,5.762,1.897,8.738,2.485c3.544,0.731,7.153,1.094,10.771,1.082    c7.059,0,12.136-1.402,15.234-4.206c3.098-2.804,4.651-7.267,4.66-13.388L45.263,61.072z"/>
	</g>
	<rect x="736.493" y="208.368" fill="#3B3C3E" width="11.859" height="66.307"/>
	<g transform="translate(530.461 175.73)">
		<path fill="#3B3C3E" d="M249.388,32.638h25.119v9.949h-25.119v30.6c-0.055,2.762,0.202,5.521,0.768,8.225    c0.365,1.853,1.148,3.597,2.292,5.1c1.002,1.217,2.33,2.122,3.829,2.61c1.731,0.54,3.54,0.799,5.354,0.766    c2.918,0.1,5.83-0.311,8.607-1.212c2.164-0.809,3.672-1.382,4.524-1.719l2.295,9.814c-2.022,0.905-4.11,1.654-6.248,2.242    c-3.317,0.931-6.754,1.379-10.199,1.33c-3.794,0.114-7.576-0.469-11.159-1.722c-2.785-1.045-5.231-2.831-7.074-5.166    c-1.88-2.506-3.166-5.406-3.761-8.482c-0.768-3.838-1.13-7.746-1.081-11.659V14.152l11.854-2.039L249.388,32.638z"/>
		<path fill="#3B3C3E" d="M311.992,90.396c2.805,0,5.291-0.061,7.459-0.184c1.822-0.082,3.634-0.317,5.417-0.7V69.746    c-1.321-0.557-2.715-0.922-4.141-1.085c-2.301-0.324-4.623-0.474-6.945-0.448c-1.9,0.009-3.797,0.138-5.682,0.387    c-1.901,0.228-3.754,0.764-5.481,1.589c-1.613,0.778-3.03,1.912-4.143,3.316c-1.171,1.605-1.757,3.563-1.659,5.548    c0,4.251,1.36,7.205,4.083,8.861C303.622,89.57,307.319,90.397,311.992,90.396 M310.973,30.981    c4.096-0.104,8.177,0.524,12.05,1.856c3.023,1.07,5.737,2.864,7.906,5.226c2.025,2.313,3.488,5.063,4.273,8.036    c0.877,3.35,1.303,6.802,1.267,10.264V97.8c-1.016,0.173-2.437,0.4-4.268,0.7c-1.831,0.3-3.894,0.576-6.183,0.828    c-2.289,0.252-4.777,0.492-7.458,0.7c-2.68,0.208-5.334,0.319-7.974,0.319c-3.476,0.031-6.943-0.355-10.327-1.148    c-2.929-0.669-5.699-1.903-8.155-3.632c-2.322-1.693-4.169-3.956-5.36-6.571c-1.347-3.094-1.998-6.445-1.908-9.818    c-0.09-3.285,0.677-6.536,2.228-9.434c1.457-2.597,3.539-4.79,6.058-6.38c2.748-1.693,5.768-2.899,8.927-3.564    c3.516-0.782,7.109-1.168,10.711-1.152c1.191,0,2.421,0.068,3.7,0.194s2.487,0.3,3.632,0.512c1.146,0.212,2.145,0.4,2.992,0.571    s1.446,0.3,1.783,0.384v-3.315c0.002-1.951-0.213-3.896-0.64-5.8c-0.393-1.845-1.177-3.584-2.3-5.1    c-1.182-1.554-2.738-2.782-4.524-3.569c-2.357-0.981-4.899-1.439-7.451-1.342c-3.441-0.041-6.879,0.236-10.27,0.827    c-2.237,0.37-4.437,0.946-6.567,1.722l-1.4-9.816c2.475-0.934,5.042-1.598,7.659-1.979c3.83-0.657,7.709-0.978,11.595-0.957"/>
		<path fill="#3B3C3E" d="M375.997,100.22c-7.309-0.168-12.492-1.741-15.552-4.718c-3.061-2.977-4.591-7.611-4.593-13.9V2.041    L367.711,0v79.695c-0.034,1.629,0.138,3.255,0.511,4.841c0.269,1.151,0.84,2.209,1.658,3.062c0.86,0.819,1.911,1.411,3.059,1.72    c1.546,0.438,3.122,0.758,4.718,0.957L375.997,100.22z"/>
		<path fill="#3B3C3E" d="M57.368,190.208c-2.721-7.4-5.421-14.562-8.1-21.484c-2.667-6.928-5.449-13.582-8.348-19.963    c-2.979,6.379-5.805,13.033-8.476,19.963c-2.671,6.932-5.326,14.093-7.964,21.484H57.368z M68.961,222.975    c-1.435-3.827-2.793-7.59-4.075-11.284c-1.282-3.694-2.599-7.458-3.952-11.287H20.907l-8.032,22.571H0    c3.4-9.348,6.587-17.997,9.562-25.95c2.976-7.94,5.888-15.483,8.735-22.629c2.847-7.146,5.67-13.968,8.469-20.468    c2.81-6.5,5.743-12.94,8.8-19.317H46.91c3.067,6.382,6,12.821,8.8,19.317c2.8,6.498,5.626,13.32,8.479,20.468    c2.845,7.144,5.756,14.687,8.733,22.629s6.166,16.593,9.565,25.95H68.961z"/>
		<path fill="#3B3C3E" d="M104.8,156.671h25.119v9.947H104.8v30.6c-0.054,2.761,0.201,5.519,0.76,8.223    c0.368,1.854,1.155,3.598,2.301,5.1c0.999,1.223,2.328,2.131,3.829,2.621c1.73,0.535,3.536,0.791,5.349,0.76    c2.919,0.1,5.833-0.31,8.612-1.207c2.167-0.807,3.677-1.385,4.529-1.719l2.3,9.814c-2.024,0.9-4.114,1.646-6.25,2.234    c-3.318,0.932-6.755,1.379-10.2,1.328c-3.794,0.121-7.577-0.461-11.158-1.719c-2.788-1.037-5.236-2.822-7.074-5.161    c-1.879-2.505-3.167-5.403-3.765-8.478c-0.772-3.842-1.141-7.754-1.1-11.672V138.18l11.864-2.039L104.8,156.671z"/>
		<path fill="#3B3C3E" d="M156.056,156.671h25.119v9.947h-25.119v30.6c-0.058,2.762,0.2,5.52,0.769,8.223    c0.359,1.854,1.144,3.6,2.29,5.1c1.001,1.221,2.329,2.129,3.829,2.621c1.731,0.535,3.538,0.793,5.351,0.76    c2.918,0.099,5.83-0.31,8.608-1.207c2.168-0.807,3.679-1.385,4.523-1.719l2.293,9.814c-2.021,0.9-4.105,1.646-6.239,2.234    c-3.318,0.93-6.754,1.379-10.199,1.328c-3.795,0.123-7.579-0.461-11.161-1.719c-2.787-1.039-5.236-2.824-7.077-5.161    c-1.881-2.503-3.167-5.403-3.76-8.478c-0.77-3.842-1.132-7.754-1.084-11.672V138.18l11.859-2.039L156.056,156.671z"/>
	</g>
	<rect x="726.677" y="332.401" fill="#3B3C3E" width="11.862" height="66.304"/>
	<g transform="translate(212.669 173.11)">
		<path fill="#3B3C3E" d="M557.36,159.291h25.12v9.947h-25.12v30.6c-0.054,2.762,0.204,5.52,0.767,8.223    c0.365,1.852,1.149,3.596,2.29,5.1c1.002,1.221,2.33,2.129,3.83,2.621c1.733,0.535,3.541,0.793,5.354,0.76    c2.915,0.099,5.825-0.31,8.601-1.207c2.166-0.807,3.679-1.385,4.531-1.719l2.3,9.814c-2.024,0.9-4.113,1.646-6.249,2.234    c-3.318,0.932-6.754,1.379-10.2,1.328c-3.793,0.123-7.576-0.461-11.156-1.719c-2.788-1.037-5.236-2.822-7.076-5.161    c-1.883-2.502-3.17-5.401-3.761-8.478c-0.771-3.842-1.137-7.754-1.089-11.672V140.8l11.859-2.039L557.36,159.291z"/>
		<path fill="#3B3C3E" d="M650.311,223.681c-2.717,0.679-6.308,1.402-10.773,2.17c-5.123,0.813-10.305,1.193-15.492,1.143    c-4.396,0.127-8.776-0.629-12.875-2.227c-3.302-1.348-6.201-3.521-8.418-6.314c-2.189-2.851-3.753-6.129-4.591-9.623    c-0.975-4.027-1.444-8.158-1.4-12.301v-37.238h11.857v34.683c0,8.079,1.273,13.858,3.823,17.342    c2.549,3.483,6.841,5.226,12.875,5.229c1.276,0,2.595-0.049,3.951-0.133c1.357-0.086,2.64-0.188,3.825-0.32    c1.187-0.131,2.28-0.248,3.256-0.377c0.717-0.07,1.424-0.221,2.108-0.449v-55.975h11.853L650.311,223.681z"/>
		<path fill="#3B3C3E" d="M713.551,173.317c-1.9-1.446-4.003-2.604-6.241-3.438c-2.84-1.131-5.874-1.694-8.93-1.662    c-3.017-0.082-6.01,0.551-8.735,1.849c-2.365,1.187-4.401,2.938-5.928,5.101c-1.601,2.33-2.727,4.951-3.314,7.717    c-0.701,3.138-1.043,6.345-1.021,9.56c0,7.742,1.914,13.716,5.742,17.92c3.828,4.205,8.928,6.306,15.3,6.3    c2.707,0.03,5.413-0.117,8.101-0.441c1.696-0.206,3.377-0.526,5.03-0.958L713.551,173.317z M713.551,128.691l11.862-2.033v97.026    c-2.72,0.765-6.207,1.532-10.46,2.3c-4.844,0.811-9.75,1.195-14.662,1.146c-4.701,0.07-9.373-0.754-13.768-2.424    c-3.938-1.521-7.505-3.867-10.457-6.883c-2.979-3.119-5.262-6.834-6.694-10.9c-1.633-4.649-2.431-9.549-2.356-14.477    c-0.048-4.748,0.615-9.476,1.969-14.027c1.192-4.002,3.167-7.728,5.807-10.963c2.547-3.056,5.751-5.498,9.374-7.142    c3.993-1.76,8.32-2.63,12.683-2.551c3.443-0.06,6.872,0.458,10.145,1.532c2.289,0.73,4.488,1.713,6.559,2.932V128.691z"/>
		<path fill="#3B3C3E" d="M787.639,186.064c0.083-5.352-1.256-9.749-4.019-13.193c-2.763-3.445-6.568-5.166-11.415-5.16    c-2.493-0.051-4.961,0.494-7.2,1.59c-2.021,1.018-3.819,2.426-5.292,4.143c-1.467,1.738-2.609,3.725-3.375,5.865    c-0.805,2.179-1.342,4.447-1.6,6.756H787.639z M742.116,192.564c-0.109-5.234,0.755-10.443,2.548-15.361    c1.496-4.054,3.797-7.762,6.766-10.9c2.723-2.84,6.023-5.059,9.681-6.508c3.57-1.426,7.381-2.16,11.226-2.164    c8.923,0,15.765,2.783,20.527,8.348c4.762,5.564,7.141,14.046,7.137,25.441v1.979c0.005,0.745-0.037,1.49-0.125,2.229h-45.392    c0.508,6.889,2.508,12.115,6,15.682c3.491,3.566,8.931,5.35,16.316,5.352c3.537,0.069,7.07-0.293,10.52-1.08    c2.206-0.508,4.361-1.209,6.442-2.1l1.651,9.943c-2.427,1.094-4.971,1.908-7.582,2.427c-4.04,0.894-8.169,1.321-12.307,1.274    c-5.117,0.121-10.207-0.769-14.98-2.619c-3.97-1.572-7.524-4.035-10.393-7.199c-2.78-3.158-4.846-6.879-6.056-10.909    C742.732,201.916,742.064,197.25,742.116,192.564"/>
		<path fill="#DF2626" d="M157.589,7.297c-5.342,4.339-9.218,10.415-12.768,16.241c-4.005,6.568-7.939,13.182-11.8,19.841    c-0.319,0.55-0.639,1.1-0.953,1.651c-11.631-9.3-25-16.593-38.634-22.521C71.461,12.958,48.358,6.14,24.454,3.803    c-3.778-0.386-7.575-0.559-11.372-0.517C5.902,3.394,0.107,9.187-0.002,16.367C0.015,38.651,0.03,60.934,0.044,83.215    c0.023,35.488,0.048,70.973,0.075,106.457c0.007,8.107,0.012,16.211,0.015,24.311c0.008,6.846,6.016,13.4,13.084,13.087    c7.068-0.313,13.085-5.754,13.082-13.087c-0.015-22.283-0.03-44.566-0.046-66.848c-0.025-35.483-0.05-70.967-0.075-106.454    c0-3.509-0.003-7.02-0.01-10.535l0.3,0.035l0.354,0.043c1.777,0.875,5.06,0.739,7.011,1.089    c10.12,1.846,20.099,4.397,29.863,7.635c5.385,1.769,10.67,3.79,15.932,5.892c-2.257-0.9,0.968,0.422,1.666,0.729    c1.242,0.546,2.481,1.106,3.716,1.679c2.653,1.232,5.28,2.521,7.881,3.867c5.214,2.7,10.311,5.639,15.238,8.841    c2.449,1.594,4.856,3.254,7.219,4.98c0.438,0.325,0.872,0.651,1.31,0.98c0.051,0.045,0.106,0.1,0.174,0.158    c0.759,0.686,1.549,1.34,2.332,2.006c-2.727,5.023-5.411,10.071-8.054,15.143c-14.441,27.686-27.528,56.033-39.471,84.882    c-5.887,14.213-15.736,31.601-9.19,47.108c1.793,4.615,5.369,8.312,9.921,10.259c6.031,2.547,11.719,0.913,17.408-1.578    c6.322-2.759,12.571-5.724,18.662-8.962c12.453-6.614,24.527-14.721,34.317-24.954c10.257-10.793,17.971-23.742,22.578-37.899    c8.683-26.979,5.211-56.397-9.512-80.614c-1.479-2.419-3.06-4.753-4.741-7c5.407-9.533,10.971-18.974,16.694-28.322    c1.317-2.152,2.644-4.306,4.153-6.33c-1.119,1.513,1.383-1.475,1.778-1.873c0.367-0.37,0.832-0.714,1.171-1.109    c0.036-0.042,0.063-0.076,0.09-0.113c0.051-0.023,0.106-0.056,0.169-0.086c0.3-0.16,0.616-0.334,0.928-0.51    c0.266,0.01,0.649,0.018,0.877,0.018c0.028-0.002,0.055-0.002,0.083,0c0.402,0.279,0.829,0.519,1.277,0.717    c0.074,0.031,0.15,0.055,0.228,0.072c0.066,0.068,0.143,0.143,0.234,0.232c0.347,0.34,1.664,1.833,2.021,2.159    c0.095,0.148,0.178,0.274,0.2,0.312c0.453,0.777,0.951,1.531,1.425,2.3c1.88,3.044,3.74,6.102,5.581,9.173    c3.4,5.683,6.73,11.409,9.99,17.178c6.284,11.133,12.256,22.432,17.916,33.895c2.838,5.759,5.59,11.559,8.255,17.4    c1.239,2.719,2.46,5.446,3.663,8.182c0.6,1.369,1.196,2.738,1.787,4.107c0.337,0.784,0.673,1.568,1.008,2.354    c0.12,0.271,0.2,0.465,0.262,0.609c-0.008-0.011,0.028,0.076,0.161,0.389c9.865,23.759,18.312,48.082,25.297,72.84    c1.815,6.443,3.538,12.912,5.169,19.406c1.674,6.634,9.469,11.279,16.091,9.135c6.875-2.036,10.911-9.143,9.138-16.092    c-14.042-55.715-35.202-109.39-62.959-159.699c-3.4-6.157-6.888-12.266-10.464-18.325c-3.808-6.445-7.425-13.267-12.006-19.2    C196.5,7.066,189.687,1.8,181.765,0.441c-1.684-0.293-3.39-0.442-5.1-0.445c-7.041,0-13.335,2.627-19.082,7.3 M177.062,26.028    c-0.394,0.008-0.683,0.02-0.887,0.028l0.032-0.017h0.11C176.569,26.039,176.824,26.039,177.062,26.028 M176.863,26.039    c0.016,0.011,0.033,0.021,0.05,0.03C176.895,26.061,176.879,26.051,176.863,26.039 M177.026,26.139    c0.236,0.034,0.463,0.115,0.667,0.239c0.2,0.125,0.326,0.249,0.252,0.249C177.615,26.513,177.305,26.348,177.026,26.139     M172.025,29.675v0.008V29.675 M100.713,165.937c2.76-6.428,5.586-12.827,8.477-19.2c5.785-12.745,11.827-25.366,18.124-37.862    c3.054-6.049,6.165-12.071,9.333-18.066c0.33,0.659,0.654,1.32,0.968,1.988c0.08,0.169,0.583,1.28,0.819,1.792    c0.073,0.181,0.139,0.335,0.158,0.377c0.274,0.721,0.555,1.44,0.815,2.16c0.458,1.269,0.885,2.542,1.284,3.833    c0.856,2.755,1.57,5.553,2.139,8.381c0.253,1.279,0.485,2.559,0.678,3.849c0.017,0.829,0.087,1.656,0.209,2.477    c0.23,3.027,0.293,6.064,0.189,9.1c-0.055,1.617-0.158,3.232-0.309,4.847c-0.055,0.601-0.138,1.2-0.188,1.812v0.031    c-0.007,0.031-0.013,0.065-0.023,0.1c-0.591,2.99-1.1,5.963-1.89,8.914c-0.787,2.933-1.727,5.822-2.816,8.656    c-0.168,0.433-0.334,0.86-0.5,1.285c-0.08,0.166-0.178,0.375-0.3,0.629c-0.693,1.465-1.392,2.926-2.149,4.357    c-1.325,2.504-2.773,4.938-4.344,7.3c-0.86,1.294-1.755,2.565-2.689,3.8c1-1.332-1.395,1.633-1.911,2.223    c-1.915,2.184-3.944,4.258-6.064,6.246c-1.2,1.132-2.44,2.227-3.7,3.3c-0.493,0.42-3.743,2.974-2.34,1.925    c-8.199,5.996-16.947,11.205-26.126,15.555c1.466-4.147,3.241-8.213,4.879-12.267c1.309-3.248,2.634-6.485,3.977-9.715    c0.269-0.642,0.538-1.292,0.81-1.933c0.063-0.158,0.719-1.723,0.812-1.943c0.013-0.03,0.025-0.061,0.04-0.094    c0.141-0.342,0.286-0.676,0.272-0.643c0.459-1.074,0.917-2.146,1.375-3.218"/>
		<path fill="#3B3C3E" d="M423.895,23.375c4.322,0.043,7.86-3.427,7.903-7.75s-3.427-7.861-7.75-7.904    c-4.323-0.043-7.86,3.427-7.903,7.75c0,0.026,0,0.052,0,0.078C416.123,19.85,419.593,23.354,423.895,23.375L423.895,23.375"/>
		<path fill="#3B3C3E" d="M529.593,23.375c4.323,0.043,7.861-3.427,7.904-7.75s-3.427-7.861-7.75-7.904    c-4.323-0.043-7.861,3.427-7.904,7.75c0,0.026,0,0.052,0,0.078C521.822,19.85,525.292,23.354,529.593,23.375L529.593,23.375"/>
		<path fill="#3B3C3E" d="M519.714,147.31c4.323,0.043,7.861-3.428,7.904-7.75c0.043-4.323-3.427-7.861-7.75-7.904    s-7.861,3.428-7.904,7.75c0,0.026,0,0.053,0,0.078C511.943,143.785,515.413,147.289,519.714,147.31L519.714,147.31"/>
	</g>
</g>
</svg>